<?xml version="1.0" standalone="no"?><!DOCTYPE svg PUBLIC "-//W3C//DTD SVG 1.1//EN" "http://www.w3.org/Graphics/SVG/1.1/DTD/svg11.dtd"><svg t="1680139439179" class="icon" viewBox="0 0 1024 1024" version="1.1" xmlns="http://www.w3.org/2000/svg" p-id="4962" xmlns:xlink="http://www.w3.org/1999/xlink" width="200" height="200"><path d="M273.066667 347.2384l477.866667 0 0 34.133333-477.866667 0 0-34.133333Z" p-id="4963"></path><path d="M273.066667 498.926933l477.866667 0 0 34.133333-477.866667 0 0-34.133333Z" p-id="4964"></path><path d="M273.066667 650.683733l477.866667 0 0 34.133333-477.866667 0 0-34.133333Z" p-id="4965"></path><path d="M273.066667 802.372267l477.866667 0 0 34.133333-477.866667 0 0-34.133333Z" p-id="4966"></path><path d="M819.2 102.4l-125.166933 0L694.033067 0l-34.133333 0 0 102.4-292.6592 0L367.240533 0l-34.133333 0 0 102.4L204.8 102.4C167.1168 102.4 136.533333 132.983467 136.533333 170.666667l0 785.066667c0 37.6832 30.583467 68.266667 68.266667 68.266667l614.4 0c37.6832 0 68.266667-30.583467 68.266667-68.266667L887.466667 170.666667C887.466667 132.983467 856.8832 102.4 819.2 102.4zM853.333333 955.733333c0 18.875733-15.2576 34.133333-34.133333 34.133333L204.8 989.866667c-18.875733 0-34.133333-15.2576-34.133333-34.133333L170.666667 170.666667c0-18.875733 15.2576-34.133333 34.133333-34.133333l128.3072 0 0 79.6672 34.133333 0L367.240533 136.533333l292.6592 0 0 79.6672 34.133333 0L694.033067 136.533333 819.2 136.533333c18.875733 0 34.133333 15.2576 34.133333 34.133333L853.333333 955.733333z" p-id="4967"></path></svg>